<mxfile host="app.diagrams.net" modified="2023-11-15T03:31:24.259Z" agent="Mozilla/5.0 (Macintosh; Intel Mac OS X 10_15_7) AppleWebKit/537.36 (KHTML, like Gecko) Chrome/119.0.0.0 Safari/537.36" version="22.1.1" etag="4866wHb0w6-HCN_lr5X3" type="github">
  <diagram name="Page-1" id="SXR03yk6ggazvpie3elU">
    <mxGraphModel>
      <root>
        <mxCell id="0" />
        <mxCell id="1" parent="0" />
      </root>
    </mxGraphModel>
  </diagram>
</mxfile>
